<?xml version="1.0" encoding="UTF-8" standalone="no"?>
<!-- Created with Inkscape (http://www.inkscape.org/) -->

<svg
   xmlns:dc="http://purl.org/dc/elements/1.1/"
   xmlns:cc="http://creativecommons.org/ns#"
   xmlns:rdf="http://www.w3.org/1999/02/22-rdf-syntax-ns#"
   xmlns:svg="http://www.w3.org/2000/svg"
   xmlns="http://www.w3.org/2000/svg"
   xmlns:xlink="http://www.w3.org/1999/xlink"
   xmlns:sodipodi="http://sodipodi.sourceforge.net/DTD/sodipodi-0.dtd"
   xmlns:inkscape="http://www.inkscape.org/namespaces/inkscape"
   width="100"
   height="100"
   id="svg2"
   version="1.1"
   inkscape:version="0.48.5 r10040"
   sodipodi:docname="foska-back-left.svg"
   inkscape:export-filename="/home/woju/project/kostka-site/nowy_skin/foska-moja.png"
   inkscape:export-xdpi="162"
   inkscape:export-ydpi="162">
  <defs
     id="defs4">
    <linearGradient
       id="linearGradient4384">
      <stop
         style="stop-color:#161616;stop-opacity:1;"
         offset="0"
         id="stop4386" />
      <stop
         style="stop-color:#ffffff;stop-opacity:1;"
         offset="1"
         id="stop4388" />
    </linearGradient>
    <linearGradient
       inkscape:collect="always"
       xlink:href="#linearGradient4384"
       id="linearGradient4428"
       gradientUnits="userSpaceOnUse"
       x1="47.5"
       y1="49.197369"
       x2="47.5"
       y2="87.150139"
       gradientTransform="matrix(1,0,0,1.0555556,0,946.91774)" />
    <linearGradient
       inkscape:collect="always"
       xlink:href="#linearGradient4384"
       id="linearGradient4436"
       gradientUnits="userSpaceOnUse"
       gradientTransform="matrix(1,0,0,1.1520468,0,945.7116)"
       x1="47.5"
       y1="49.197369"
       x2="47.5"
       y2="87.150139" />
    <linearGradient
       inkscape:collect="always"
       xlink:href="#linearGradient4384"
       id="linearGradient4444"
       gradientUnits="userSpaceOnUse"
       gradientTransform="matrix(1,0,0,1.1520468,1.75,937.7116)"
       x1="46.75"
       y1="45.291279"
       x2="47.5"
       y2="87.150139" />
    <linearGradient
       inkscape:collect="always"
       xlink:href="#linearGradient4384"
       id="linearGradient4488"
       gradientUnits="userSpaceOnUse"
       gradientTransform="matrix(1,0,0,1.2105263,1.75,936.98061)"
       x1="46.75"
       y1="45.291279"
       x2="47.5"
       y2="87.150139" />
    <linearGradient
       inkscape:collect="always"
       xlink:href="#linearGradient4384"
       id="linearGradient4496"
       gradientUnits="userSpaceOnUse"
       gradientTransform="matrix(1,0,0,1.2105263,1.75,936.98061)"
       x1="46.75"
       y1="1.3021479"
       x2="47.5"
       y2="87.150139" />
    <linearGradient
       inkscape:collect="always"
       xlink:href="#linearGradient4384"
       id="linearGradient4504"
       gradientUnits="userSpaceOnUse"
       gradientTransform="matrix(1,0,0,1.2105263,1.75,936.98061)"
       x1="38.274487"
       y1="38.333473"
       x2="38.274487"
       y2="97.901802" />
    <linearGradient
       inkscape:collect="always"
       xlink:href="#linearGradient4384"
       id="linearGradient4512"
       gradientUnits="userSpaceOnUse"
       gradientTransform="matrix(1,0,0,1.2105263,1.75,936.98061)"
       x1="38.274487"
       y1="27.897327"
       x2="38.274487"
       y2="97.901802" />
    <linearGradient
       inkscape:collect="always"
       xlink:href="#linearGradient4384"
       id="linearGradient4518"
       gradientUnits="userSpaceOnUse"
       gradientTransform="matrix(1,0,0,1.2105263,1.75,936.98061)"
       x1="38.274487"
       y1="27.897327"
       x2="38.274487"
       y2="97.901802" />
    <mask
       maskUnits="userSpaceOnUse"
       id="mask4514">
      <rect
         style="fill:url(#linearGradient4518);fill-opacity:1;stroke:none"
         id="rect4516"
         width="98.5"
         height="103.5"
         x="3.25"
         y="952.11218" />
    </mask>
  </defs>
  <sodipodi:namedview
     id="base"
     pagecolor="#ffffff"
     bordercolor="#666666"
     borderopacity="1.0"
     inkscape:pageopacity="0.0"
     inkscape:pageshadow="2"
     inkscape:zoom="2.8284271"
     inkscape:cx="30.359962"
     inkscape:cy="46.021928"
     inkscape:document-units="px"
     inkscape:current-layer="layer1"
     showgrid="false"
     inkscape:window-width="998"
     inkscape:window-height="1292"
     inkscape:window-x="3"
     inkscape:window-y="54"
     inkscape:window-maximized="0"
     inkscape:snap-global="false" />
  <metadata
     id="metadata7">
    <rdf:RDF>
      <cc:Work
         rdf:about="">
        <dc:format>image/svg+xml</dc:format>
        <dc:type
           rdf:resource="http://purl.org/dc/dcmitype/StillImage" />
        <dc:title></dc:title>
      </cc:Work>
    </rdf:RDF>
  </metadata>
  <g
     inkscape:label="Layer 1"
     inkscape:groupmode="layer"
     id="layer1"
     transform="translate(0,-952.36218)">
    <g
       id="g4392"
       mask="url(#mask4514)">
      <path
         sodipodi:nodetypes="ccccccccc"
         inkscape:connector-curvature="0"
         id="path3840"
         d="m 32.721611,1002.7296 c 8.733018,-1.2874 25.268735,-0.8316 33.685073,0.36 0.90985,19.9415 8.605048,25.4196 28.131259,26.217 1.756804,9.3576 0.824586,30.0762 0.845145,36.7431 -14.19617,0.9522 -25.640464,0.5608 -26.561704,28.1054 -7.77484,-0.9474 -22.509595,-1.1155 -35.616833,-0.3658 -0.663613,-7.8338 0.09705,-24.4711 -27.2861162,-28.6556 -0.1695834,-10.7538 -0.063652,-26.5109 -1.0866153,-34.8938 9.9400385,-0.189 28.0298325,-10.9125 27.8897915,-27.5103 z"
         style="fill:#f8f8f8;fill-opacity:1;stroke:#f0f0f0;stroke-width:2.13761997;stroke-linecap:butt;stroke-linejoin:miter;stroke-miterlimit:4;stroke-opacity:1;stroke-dasharray:none" />
      <path
         inkscape:connector-curvature="0"
         id="path3759"
         d="m 49.281603,999.86849 c -1.642716,0 -3.450729,0.70231 -3.450729,0.70231 -0.248478,1.0599 -0.329446,3.3008 -0.305375,6.1075 -12.812556,5.6825 -14.588138,22.4752 1.160423,23.0863 0.111004,1.4982 0.244299,3.1454 0.244299,3.1454 l 4.641689,-1.0383 c 0,0 -0.05257,-1.3585 -0.09161,-2.4124 16.362155,-2.8829 13.74069,-24.8188 0.335912,-24.3689 -0.08937,0 -0.184268,0.026 -0.274837,0.031 0.07413,-0.7111 0.139164,-1.3588 0.244299,-1.8322 0.607391,-2.7352 -0.861353,-3.42024 -2.504069,-3.42024 z m 1.954395,10.16891 c 6.986265,0.4349 9.627982,11.3478 0.122151,14.5969 -0.120181,-4.4668 -0.246573,-9.9381 -0.122151,-14.5969 z m -5.557811,1.6185 c 0.172984,4.7652 0.453117,9.6843 0.732898,13.8335 -8.434532,-0.083 -7.393651,-9.6832 -0.732898,-13.8335 z"
         style="fill:#ffffff;fill-opacity:1;stroke:#f0f0f0;stroke-width:2.13761997;stroke-linecap:butt;stroke-linejoin:round;stroke-miterlimit:4;stroke-opacity:1;stroke-dasharray:none" />
      <path
         sodipodi:nodetypes="cccccccccsccccc"
         inkscape:connector-curvature="0"
         id="path3771"
         d="m 43.281374,1055.9569 c 0,0 -3.676561,0.4241 -6.402743,-0.8128 l 0.458875,4.5689 c 0,0 5.644931,1.2747 10.115979,0 l 0.18511,-3.7052 c -2.996205,-2.787 -5.810396,-10.5434 -2.871592,-14.7756 2.844808,-1.6618 7.670497,-1.9067 10.612607,0.2632 2.56448,3.5667 -1.697204,10.2376 -3.202714,13.8386 l 0.05926,4.6836 c 2.439965,0 8.568733,1.0252 10.582916,-0.9137 2.014184,-1.9388 0.610553,-5.5835 0.610553,-5.5835 0,0 -3.281954,2.5428 -7.428394,2.4365 1.266447,-4.3468 9.41397,-12.7258 3.904588,-17.728 -5.689089,-3.4879 -12.256711,-3.3946 -18.917887,-0.7059 -4.480464,1.7868 -3.426436,13.8126 2.293444,18.4339 z"
         style="fill:#ffffff;fill-opacity:1;stroke:#f0f0f0;stroke-width:2.13761997;stroke-linecap:butt;stroke-linejoin:round;stroke-miterlimit:4;stroke-opacity:1;stroke-dasharray:none" />
      <path
         sodipodi:nodetypes="ccccccscccczc"
         inkscape:connector-curvature="0"
         id="path3791"
         d="m 36.410774,1065.8795 26.818206,-1.24 c 0,0 0.259899,5.6139 -0.89394,7.6661 -1.060246,1.062 -4.022731,0.1127 -4.022731,0.1127 l 0.223486,-3.4948 -11.590002,0.3664 c 0,0 3.574173,3.6398 3.544538,7.5251 -0.02576,3.3771 -4.316329,7.0456 -4.316329,7.0456 0,0 16.621713,-1.9779 17.837176,-0.507 0.991977,2.4514 -0.209872,3.3952 -1.787881,4.8476 l -26.036009,0.2254 c 0,0 8.802839,-6.5262 8.715918,-11.6116 -0.08692,-5.0856 -8.492432,-10.9355 -8.492432,-10.9355 z"
         style="fill:#ffffff;fill-opacity:1;stroke:#f0f0f0;stroke-width:2.13761997;stroke-linecap:butt;stroke-linejoin:round;stroke-miterlimit:4;stroke-opacity:1;stroke-dasharray:none" />
      <path
         sodipodi:nodetypes="ccccssccccc"
         inkscape:connector-curvature="0"
         id="path3793"
         d="m 9.1455978,1035.5538 0.1117419,4.9604 15.8674383,-0.5637 c 0,0 -12.03682,9.864 -14.45526,13.4828 -3.5894453,6.5527 2.080213,8.5984 8.71807,7.9999 5.606774,-0.5055 10.748641,0 11.319028,-1.8137 0.631211,-2.004 0.422047,-5.1571 0.422047,-5.1571 -5.818163,0.2025 -15.476709,3.6244 -15.095504,1.0439 0.782197,-3.797 15.278515,-13.8412 15.278515,-13.8412 0,0 1.746643,-4.1273 0.436706,-5.9604 -3.20956,-2.0585 -22.6027822,-0.1509 -22.6027822,-0.1509 z"
         style="fill:#ffffff;fill-opacity:1;stroke:#f0f0f0;stroke-width:2.13810873;stroke-linecap:butt;stroke-linejoin:round;stroke-miterlimit:4;stroke-opacity:1;stroke-dasharray:none" />
      <path
         inkscape:connector-curvature="0"
         id="path2985-4"
         d="m 88.216823,1033.6429 c -1.730115,0 -3.603412,0.5802 -3.603412,0.5802 -0.402314,1.38 -0.375194,5.1185 -0.183227,9.375 -3.020037,0.057 -6.331568,0.2414 -9.344452,0.4275 -0.01587,-4.497 0.31064,-8.5562 1.435256,-9.7109 l -6.62662,0.031 c -0.450301,1.4238 -0.38039,5.5455 -0.12215,10.0469 -1.47687,0.1128 -2.809444,0.2137 -2.809444,0.2137 l 0.580212,5.0082 c 0,0 1.320416,-0.069 2.595681,-0.1527 0.422551,5.3995 0.916123,10.1384 0.916123,10.1384 l 4.885992,-0.8245 c 0,0 -0.429363,-4.4715 -0.671824,-9.5887 3.035721,-0.1075 6.491761,-0.1406 9.497138,0.03 0.437653,6.4355 1.007735,12.4287 1.007735,12.4287 l 4.885991,-0.9161 c 0,0 -0.269855,-5.1044 -0.366453,-10.7186 0.712764,0.2229 1.250965,0.4933 1.557407,0.8245 l 0.305378,-6.8099 c -0.404924,-0.1444 -1.059202,-0.2332 -1.862785,-0.3053 0.05884,-3.087 0.202085,-5.8071 0.580214,-7.1764 0.639708,-2.3165 -0.926638,-2.901 -2.65676,-2.901 z"
         style="fill:#ffffff;fill-opacity:1;stroke:#f0f0f0;stroke-width:2.13761997;stroke-linecap:butt;stroke-linejoin:round;stroke-miterlimit:4;stroke-opacity:1;stroke-dasharray:none" />
    </g>
  </g>
</svg>
